<mxfile host="Electron" modified="2024-10-10T05:39:27.916Z" agent="Mozilla/5.0 (Windows NT 10.0; Win64; x64) AppleWebKit/537.36 (KHTML, like Gecko) draw.io/24.4.8 Chrome/124.0.6367.207 Electron/30.0.6 Safari/537.36" etag="QY8RuVSK21pzdfOCH2h7" version="24.4.8" type="device">
  <diagram name="第 1 页" id="CRwKbyl--XxiAczFJ1SI">
    <mxGraphModel dx="1198" dy="985" grid="1" gridSize="10" guides="1" tooltips="1" connect="1" arrows="1" fold="1" page="1" pageScale="1" pageWidth="827" pageHeight="1169" math="0" shadow="0">
      <root>
        <mxCell id="0" />
        <mxCell id="1" parent="0" />
        <mxCell id="88Dwu4RjRORflN9PIPgM-87" style="edgeStyle=orthogonalEdgeStyle;rounded=0;orthogonalLoop=1;jettySize=auto;html=1;exitX=0.5;exitY=1;exitDx=0;exitDy=0;entryX=0.5;entryY=0;entryDx=0;entryDy=0;" parent="1" source="88Dwu4RjRORflN9PIPgM-1" target="88Dwu4RjRORflN9PIPgM-85" edge="1">
          <mxGeometry relative="1" as="geometry" />
        </mxCell>
        <mxCell id="88Dwu4RjRORflN9PIPgM-89" style="edgeStyle=orthogonalEdgeStyle;rounded=0;orthogonalLoop=1;jettySize=auto;html=1;exitX=1;exitY=0.5;exitDx=0;exitDy=0;entryX=0;entryY=0.5;entryDx=0;entryDy=0;" parent="1" source="88Dwu4RjRORflN9PIPgM-1" target="88Dwu4RjRORflN9PIPgM-86" edge="1">
          <mxGeometry relative="1" as="geometry" />
        </mxCell>
        <mxCell id="88Dwu4RjRORflN9PIPgM-92" style="edgeStyle=orthogonalEdgeStyle;rounded=0;orthogonalLoop=1;jettySize=auto;html=1;exitX=0.5;exitY=0;exitDx=0;exitDy=0;entryX=0.5;entryY=1;entryDx=0;entryDy=0;" parent="1" source="88Dwu4RjRORflN9PIPgM-1" target="88Dwu4RjRORflN9PIPgM-91" edge="1">
          <mxGeometry relative="1" as="geometry" />
        </mxCell>
        <mxCell id="88Dwu4RjRORflN9PIPgM-1" value="STM32F107ZET6" style="rounded=0;whiteSpace=wrap;html=1;" parent="1" vertex="1">
          <mxGeometry x="560" y="250" width="120" height="60" as="geometry" />
        </mxCell>
        <mxCell id="88Dwu4RjRORflN9PIPgM-4" style="edgeStyle=orthogonalEdgeStyle;rounded=0;orthogonalLoop=1;jettySize=auto;html=1;exitX=1;exitY=0.5;exitDx=0;exitDy=0;entryX=0;entryY=0.5;entryDx=0;entryDy=0;startArrow=classic;startFill=1;" parent="1" source="88Dwu4RjRORflN9PIPgM-2" target="88Dwu4RjRORflN9PIPgM-1" edge="1">
          <mxGeometry relative="1" as="geometry" />
        </mxCell>
        <mxCell id="88Dwu4RjRORflN9PIPgM-2" value="ESP8266" style="rounded=0;whiteSpace=wrap;html=1;" parent="1" vertex="1">
          <mxGeometry x="340" y="250" width="120" height="60" as="geometry" />
        </mxCell>
        <mxCell id="88Dwu4RjRORflN9PIPgM-5" value="USART&amp;nbsp;" style="text;html=1;align=center;verticalAlign=middle;whiteSpace=wrap;rounded=0;" parent="1" vertex="1">
          <mxGeometry x="480" y="250" width="60" height="30" as="geometry" />
        </mxCell>
        <mxCell id="88Dwu4RjRORflN9PIPgM-8" value="TIM2定时器&lt;div&gt;10ms&lt;/div&gt;" style="rounded=0;whiteSpace=wrap;html=1;" parent="1" vertex="1">
          <mxGeometry x="740" y="140" width="120" height="60" as="geometry" />
        </mxCell>
        <mxCell id="88Dwu4RjRORflN9PIPgM-21" style="edgeStyle=orthogonalEdgeStyle;rounded=0;orthogonalLoop=1;jettySize=auto;html=1;exitX=1;exitY=0.5;exitDx=0;exitDy=0;dashed=1;" parent="1" source="88Dwu4RjRORflN9PIPgM-19" edge="1">
          <mxGeometry relative="1" as="geometry">
            <mxPoint x="400" y="630" as="targetPoint" />
          </mxGeometry>
        </mxCell>
        <mxCell id="88Dwu4RjRORflN9PIPgM-75" style="edgeStyle=orthogonalEdgeStyle;rounded=0;orthogonalLoop=1;jettySize=auto;html=1;exitX=0.5;exitY=1;exitDx=0;exitDy=0;" parent="1" source="88Dwu4RjRORflN9PIPgM-19" target="88Dwu4RjRORflN9PIPgM-31" edge="1">
          <mxGeometry relative="1" as="geometry" />
        </mxCell>
        <mxCell id="88Dwu4RjRORflN9PIPgM-19" value="HAL_init" style="rounded=0;whiteSpace=wrap;html=1;" parent="1" vertex="1">
          <mxGeometry x="140" y="600" width="120" height="60" as="geometry" />
        </mxCell>
        <mxCell id="88Dwu4RjRORflN9PIPgM-20" value="软件流程图" style="text;html=1;align=center;verticalAlign=middle;whiteSpace=wrap;rounded=0;" parent="1" vertex="1">
          <mxGeometry x="40" y="500" width="80" height="30" as="geometry" />
        </mxCell>
        <mxCell id="88Dwu4RjRORflN9PIPgM-28" style="edgeStyle=orthogonalEdgeStyle;rounded=0;orthogonalLoop=1;jettySize=auto;html=1;exitX=0.5;exitY=1;exitDx=0;exitDy=0;" parent="1" source="88Dwu4RjRORflN9PIPgM-22" edge="1">
          <mxGeometry relative="1" as="geometry">
            <mxPoint x="525" y="632.5" as="targetPoint" />
          </mxGeometry>
        </mxCell>
        <mxCell id="88Dwu4RjRORflN9PIPgM-22" value="设置中断优先级分组为4，最优先级" style="rounded=0;whiteSpace=wrap;html=1;" parent="1" vertex="1">
          <mxGeometry x="420" y="597.5" width="210" height="25" as="geometry" />
        </mxCell>
        <mxCell id="88Dwu4RjRORflN9PIPgM-23" value="&lt;span style=&quot;color: rgb(204, 204, 204); font-family: Consolas, &amp;quot;Courier New&amp;quot;, monospace; font-size: 14px; font-style: normal; font-variant-ligatures: normal; font-variant-caps: normal; font-weight: 400; letter-spacing: normal; orphans: 2; text-align: start; text-indent: 0px; text-transform: none; widows: 2; word-spacing: 0px; -webkit-text-stroke-width: 0px; white-space: pre-wrap; background-color: rgb(32, 32, 32); text-decoration-thickness: initial; text-decoration-style: initial; text-decoration-color: initial; display: inline !important; float: none;&quot;&gt;初始化NVIC,Systick&lt;/span&gt;" style="text;whiteSpace=wrap;html=1;" parent="1" vertex="1">
          <mxGeometry x="267.5" y="590" width="146" height="40" as="geometry" />
        </mxCell>
        <mxCell id="88Dwu4RjRORflN9PIPgM-24" value="cubemx软件中完成，生成的代码在stm32f1xx_hal.c中" style="text;html=1;align=center;verticalAlign=middle;whiteSpace=wrap;rounded=0;" parent="1" vertex="1">
          <mxGeometry x="264" y="640" width="150" height="30" as="geometry" />
        </mxCell>
        <mxCell id="88Dwu4RjRORflN9PIPgM-25" value="使用systick作为时钟源，配置1ms刻度" style="rounded=0;whiteSpace=wrap;html=1;" parent="1" vertex="1">
          <mxGeometry x="420" y="635" width="210" height="27.5" as="geometry" />
        </mxCell>
        <mxCell id="88Dwu4RjRORflN9PIPgM-29" value="&lt;div style=&quot;color: #cccccc;background-color: #1f1f1f;font-family: Consolas, &#39;Courier New&#39;, monospace;font-weight: normal;font-size: 14px;line-height: 19px;white-space: pre;&quot;&gt;&lt;div&gt;&lt;span style=&quot;color: #dcdcaa;&quot;&gt;HAL_NVIC_SetPriorityGrouping&lt;/span&gt;&lt;span style=&quot;color: #cccccc;&quot;&gt;(&lt;/span&gt;&lt;span style=&quot;color: #569cd6;&quot;&gt;NVIC_PRIORITYGROUP_4&lt;/span&gt;&lt;span style=&quot;color: #cccccc;&quot;&gt;);&lt;/span&gt;&lt;/div&gt;&lt;/div&gt;" style="text;whiteSpace=wrap;html=1;" parent="1" vertex="1">
          <mxGeometry x="640" y="595" width="400" height="40" as="geometry" />
        </mxCell>
        <mxCell id="88Dwu4RjRORflN9PIPgM-30" value="&lt;div style=&quot;color: #cccccc;background-color: #1f1f1f;font-family: Consolas, &#39;Courier New&#39;, monospace;font-weight: normal;font-size: 14px;line-height: 19px;white-space: pre;&quot;&gt;&lt;div&gt;&lt;span style=&quot;color: #dcdcaa;&quot;&gt;HAL_InitTick&lt;/span&gt;&lt;span style=&quot;color: #cccccc;&quot;&gt;(&lt;/span&gt;&lt;span style=&quot;color: #569cd6;&quot;&gt;TICK_INT_PRIORITY&lt;/span&gt;&lt;span style=&quot;color: #cccccc;&quot;&gt;);&lt;/span&gt;&lt;/div&gt;&lt;/div&gt;" style="text;whiteSpace=wrap;html=1;" parent="1" vertex="1">
          <mxGeometry x="640" y="630" width="280" height="40" as="geometry" />
        </mxCell>
        <mxCell id="88Dwu4RjRORflN9PIPgM-32" style="edgeStyle=orthogonalEdgeStyle;rounded=0;orthogonalLoop=1;jettySize=auto;html=1;exitX=1;exitY=0.5;exitDx=0;exitDy=0;dashed=1;" parent="1" source="88Dwu4RjRORflN9PIPgM-31" edge="1">
          <mxGeometry relative="1" as="geometry">
            <mxPoint x="410" y="729.6666666666667" as="targetPoint" />
          </mxGeometry>
        </mxCell>
        <mxCell id="88Dwu4RjRORflN9PIPgM-76" style="edgeStyle=orthogonalEdgeStyle;rounded=0;orthogonalLoop=1;jettySize=auto;html=1;exitX=0.5;exitY=1;exitDx=0;exitDy=0;" parent="1" source="88Dwu4RjRORflN9PIPgM-31" target="88Dwu4RjRORflN9PIPgM-35" edge="1">
          <mxGeometry relative="1" as="geometry" />
        </mxCell>
        <mxCell id="88Dwu4RjRORflN9PIPgM-31" value="SystemClock_Config" style="rounded=0;whiteSpace=wrap;html=1;" parent="1" vertex="1">
          <mxGeometry x="140" y="700" width="120" height="60" as="geometry" />
        </mxCell>
        <mxCell id="88Dwu4RjRORflN9PIPgM-34" value="配置时钟" style="text;html=1;align=center;verticalAlign=middle;whiteSpace=wrap;rounded=0;" parent="1" vertex="1">
          <mxGeometry x="290" y="700" width="60" height="30" as="geometry" />
        </mxCell>
        <mxCell id="88Dwu4RjRORflN9PIPgM-54" style="edgeStyle=orthogonalEdgeStyle;rounded=0;orthogonalLoop=1;jettySize=auto;html=1;exitX=1;exitY=0.5;exitDx=0;exitDy=0;dashed=1;" parent="1" source="88Dwu4RjRORflN9PIPgM-35" edge="1">
          <mxGeometry relative="1" as="geometry">
            <mxPoint x="400" y="930" as="targetPoint" />
          </mxGeometry>
        </mxCell>
        <mxCell id="88Dwu4RjRORflN9PIPgM-77" style="edgeStyle=orthogonalEdgeStyle;rounded=0;orthogonalLoop=1;jettySize=auto;html=1;exitX=0.5;exitY=1;exitDx=0;exitDy=0;entryX=0.5;entryY=0;entryDx=0;entryDy=0;" parent="1" source="88Dwu4RjRORflN9PIPgM-35" target="88Dwu4RjRORflN9PIPgM-62" edge="1">
          <mxGeometry relative="1" as="geometry" />
        </mxCell>
        <mxCell id="88Dwu4RjRORflN9PIPgM-35" value="外设初始化" style="rounded=0;whiteSpace=wrap;html=1;" parent="1" vertex="1">
          <mxGeometry x="140" y="900" width="120" height="60" as="geometry" />
        </mxCell>
        <mxCell id="88Dwu4RjRORflN9PIPgM-53" value="" style="group" parent="1" vertex="1" connectable="0">
          <mxGeometry x="430" y="680" width="350" height="160" as="geometry" />
        </mxCell>
        <mxCell id="88Dwu4RjRORflN9PIPgM-38" style="edgeStyle=orthogonalEdgeStyle;rounded=0;orthogonalLoop=1;jettySize=auto;html=1;exitX=1;exitY=0.5;exitDx=0;exitDy=0;entryX=0;entryY=0.5;entryDx=0;entryDy=0;" parent="88Dwu4RjRORflN9PIPgM-53" source="88Dwu4RjRORflN9PIPgM-36" target="88Dwu4RjRORflN9PIPgM-37" edge="1">
          <mxGeometry relative="1" as="geometry" />
        </mxCell>
        <mxCell id="88Dwu4RjRORflN9PIPgM-36" value="HSE" style="rounded=0;whiteSpace=wrap;html=1;" parent="88Dwu4RjRORflN9PIPgM-53" vertex="1">
          <mxGeometry width="64.28571428571429" height="36.92307692307693" as="geometry" />
        </mxCell>
        <mxCell id="88Dwu4RjRORflN9PIPgM-40" style="edgeStyle=orthogonalEdgeStyle;rounded=0;orthogonalLoop=1;jettySize=auto;html=1;exitX=1;exitY=0.5;exitDx=0;exitDy=0;" parent="88Dwu4RjRORflN9PIPgM-53" source="88Dwu4RjRORflN9PIPgM-37" edge="1">
          <mxGeometry relative="1" as="geometry">
            <mxPoint x="228.57142857142858" y="18.461538461538463" as="targetPoint" />
          </mxGeometry>
        </mxCell>
        <mxCell id="88Dwu4RjRORflN9PIPgM-37" value="PLL" style="rounded=0;whiteSpace=wrap;html=1;" parent="88Dwu4RjRORflN9PIPgM-53" vertex="1">
          <mxGeometry x="114.28571428571429" width="64.28571428571429" height="36.92307692307693" as="geometry" />
        </mxCell>
        <mxCell id="88Dwu4RjRORflN9PIPgM-39" value="8MHz" style="text;html=1;align=center;verticalAlign=middle;whiteSpace=wrap;rounded=0;" parent="88Dwu4RjRORflN9PIPgM-53" vertex="1">
          <mxGeometry x="64.28571428571429" y="3.076923076923077" width="42.85714285714286" height="18.461538461538463" as="geometry" />
        </mxCell>
        <mxCell id="88Dwu4RjRORflN9PIPgM-41" value="72MHz" style="text;html=1;align=center;verticalAlign=middle;whiteSpace=wrap;rounded=0;" parent="88Dwu4RjRORflN9PIPgM-53" vertex="1">
          <mxGeometry x="178.57142857142858" y="3.076923076923077" width="42.85714285714286" height="18.461538461538463" as="geometry" />
        </mxCell>
        <mxCell id="88Dwu4RjRORflN9PIPgM-44" style="edgeStyle=orthogonalEdgeStyle;rounded=0;orthogonalLoop=1;jettySize=auto;html=1;exitX=0.5;exitY=1;exitDx=0;exitDy=0;entryX=0.5;entryY=0;entryDx=0;entryDy=0;" parent="88Dwu4RjRORflN9PIPgM-53" source="88Dwu4RjRORflN9PIPgM-42" target="88Dwu4RjRORflN9PIPgM-43" edge="1">
          <mxGeometry relative="1" as="geometry" />
        </mxCell>
        <mxCell id="88Dwu4RjRORflN9PIPgM-42" value="SYSCLK" style="rounded=0;whiteSpace=wrap;html=1;" parent="88Dwu4RjRORflN9PIPgM-53" vertex="1">
          <mxGeometry x="228.57142857142858" width="64.28571428571429" height="36.92307692307693" as="geometry" />
        </mxCell>
        <mxCell id="88Dwu4RjRORflN9PIPgM-48" style="edgeStyle=orthogonalEdgeStyle;rounded=0;orthogonalLoop=1;jettySize=auto;html=1;exitX=0.25;exitY=1;exitDx=0;exitDy=0;entryX=0.5;entryY=0;entryDx=0;entryDy=0;" parent="88Dwu4RjRORflN9PIPgM-53" source="88Dwu4RjRORflN9PIPgM-43" target="88Dwu4RjRORflN9PIPgM-46" edge="1">
          <mxGeometry relative="1" as="geometry" />
        </mxCell>
        <mxCell id="88Dwu4RjRORflN9PIPgM-49" style="edgeStyle=orthogonalEdgeStyle;rounded=0;orthogonalLoop=1;jettySize=auto;html=1;exitX=0.75;exitY=1;exitDx=0;exitDy=0;entryX=0.5;entryY=0;entryDx=0;entryDy=0;" parent="88Dwu4RjRORflN9PIPgM-53" source="88Dwu4RjRORflN9PIPgM-43" target="88Dwu4RjRORflN9PIPgM-47" edge="1">
          <mxGeometry relative="1" as="geometry" />
        </mxCell>
        <mxCell id="88Dwu4RjRORflN9PIPgM-43" value="AHB" style="rounded=0;whiteSpace=wrap;html=1;" parent="88Dwu4RjRORflN9PIPgM-53" vertex="1">
          <mxGeometry x="228.57142857142858" y="61.53846153846154" width="64.28571428571429" height="36.92307692307693" as="geometry" />
        </mxCell>
        <mxCell id="88Dwu4RjRORflN9PIPgM-45" value="72MHz" style="text;html=1;align=center;verticalAlign=middle;whiteSpace=wrap;rounded=0;" parent="88Dwu4RjRORflN9PIPgM-53" vertex="1">
          <mxGeometry x="257.14285714285717" y="43.07692307692308" width="42.85714285714286" height="18.461538461538463" as="geometry" />
        </mxCell>
        <mxCell id="88Dwu4RjRORflN9PIPgM-46" value="APB1" style="rounded=0;whiteSpace=wrap;html=1;" parent="88Dwu4RjRORflN9PIPgM-53" vertex="1">
          <mxGeometry x="178.57142857142858" y="123.07692307692308" width="64.28571428571429" height="36.92307692307693" as="geometry" />
        </mxCell>
        <mxCell id="88Dwu4RjRORflN9PIPgM-47" value="APB2" style="rounded=0;whiteSpace=wrap;html=1;" parent="88Dwu4RjRORflN9PIPgM-53" vertex="1">
          <mxGeometry x="278.57142857142856" y="123.07692307692308" width="64.28571428571429" height="36.92307692307693" as="geometry" />
        </mxCell>
        <mxCell id="88Dwu4RjRORflN9PIPgM-50" value="72MHz" style="text;html=1;align=center;verticalAlign=middle;whiteSpace=wrap;rounded=0;" parent="88Dwu4RjRORflN9PIPgM-53" vertex="1">
          <mxGeometry x="307.14285714285717" y="98.46153846153847" width="42.85714285714286" height="18.461538461538463" as="geometry" />
        </mxCell>
        <mxCell id="88Dwu4RjRORflN9PIPgM-51" value="36MHz" style="text;html=1;align=center;verticalAlign=middle;whiteSpace=wrap;rounded=0;" parent="88Dwu4RjRORflN9PIPgM-53" vertex="1">
          <mxGeometry x="178.57142857142858" y="92.3076923076923" width="42.85714285714286" height="18.461538461538463" as="geometry" />
        </mxCell>
        <mxCell id="88Dwu4RjRORflN9PIPgM-59" style="edgeStyle=orthogonalEdgeStyle;rounded=0;orthogonalLoop=1;jettySize=auto;html=1;exitX=0.5;exitY=1;exitDx=0;exitDy=0;entryX=0.5;entryY=0;entryDx=0;entryDy=0;" parent="1" source="88Dwu4RjRORflN9PIPgM-55" target="88Dwu4RjRORflN9PIPgM-56" edge="1">
          <mxGeometry relative="1" as="geometry" />
        </mxCell>
        <mxCell id="88Dwu4RjRORflN9PIPgM-55" value="GPIO" style="rounded=0;whiteSpace=wrap;html=1;" parent="1" vertex="1">
          <mxGeometry x="420" y="860" width="210" height="25" as="geometry" />
        </mxCell>
        <mxCell id="88Dwu4RjRORflN9PIPgM-60" style="edgeStyle=orthogonalEdgeStyle;rounded=0;orthogonalLoop=1;jettySize=auto;html=1;exitX=0.5;exitY=1;exitDx=0;exitDy=0;entryX=0.5;entryY=0;entryDx=0;entryDy=0;" parent="1" source="88Dwu4RjRORflN9PIPgM-56" target="88Dwu4RjRORflN9PIPgM-57" edge="1">
          <mxGeometry relative="1" as="geometry" />
        </mxCell>
        <mxCell id="88Dwu4RjRORflN9PIPgM-56" value="IIC" style="rounded=0;whiteSpace=wrap;html=1;" parent="1" vertex="1">
          <mxGeometry x="420" y="900" width="210" height="25" as="geometry" />
        </mxCell>
        <mxCell id="88Dwu4RjRORflN9PIPgM-61" style="edgeStyle=orthogonalEdgeStyle;rounded=0;orthogonalLoop=1;jettySize=auto;html=1;exitX=0.5;exitY=1;exitDx=0;exitDy=0;entryX=0.5;entryY=0;entryDx=0;entryDy=0;" parent="1" source="88Dwu4RjRORflN9PIPgM-57" target="88Dwu4RjRORflN9PIPgM-58" edge="1">
          <mxGeometry relative="1" as="geometry" />
        </mxCell>
        <mxCell id="88Dwu4RjRORflN9PIPgM-57" value="TIM" style="rounded=0;whiteSpace=wrap;html=1;" parent="1" vertex="1">
          <mxGeometry x="420" y="940" width="210" height="25" as="geometry" />
        </mxCell>
        <mxCell id="88Dwu4RjRORflN9PIPgM-58" value="USART" style="rounded=0;whiteSpace=wrap;html=1;" parent="1" vertex="1">
          <mxGeometry x="420" y="980" width="210" height="25" as="geometry" />
        </mxCell>
        <mxCell id="88Dwu4RjRORflN9PIPgM-67" style="edgeStyle=orthogonalEdgeStyle;rounded=0;orthogonalLoop=1;jettySize=auto;html=1;exitX=1;exitY=0.5;exitDx=0;exitDy=0;dashed=1;" parent="1" source="88Dwu4RjRORflN9PIPgM-62" edge="1">
          <mxGeometry relative="1" as="geometry">
            <mxPoint x="400" y="1104.6666666666667" as="targetPoint" />
          </mxGeometry>
        </mxCell>
        <mxCell id="88Dwu4RjRORflN9PIPgM-78" style="edgeStyle=orthogonalEdgeStyle;rounded=0;orthogonalLoop=1;jettySize=auto;html=1;exitX=0.5;exitY=1;exitDx=0;exitDy=0;entryX=0.5;entryY=0;entryDx=0;entryDy=0;" parent="1" source="88Dwu4RjRORflN9PIPgM-62" target="88Dwu4RjRORflN9PIPgM-66" edge="1">
          <mxGeometry relative="1" as="geometry" />
        </mxCell>
        <mxCell id="88Dwu4RjRORflN9PIPgM-62" value="用户初始化" style="rounded=0;whiteSpace=wrap;html=1;" parent="1" vertex="1">
          <mxGeometry x="140" y="1075" width="120" height="60" as="geometry" />
        </mxCell>
        <mxCell id="88Dwu4RjRORflN9PIPgM-71" style="edgeStyle=orthogonalEdgeStyle;rounded=0;orthogonalLoop=1;jettySize=auto;html=1;exitX=0.5;exitY=1;exitDx=0;exitDy=0;entryX=0.5;entryY=0;entryDx=0;entryDy=0;" parent="1" source="88Dwu4RjRORflN9PIPgM-63" target="88Dwu4RjRORflN9PIPgM-64" edge="1">
          <mxGeometry relative="1" as="geometry" />
        </mxCell>
        <mxCell id="88Dwu4RjRORflN9PIPgM-63" value="OLED" style="rounded=0;whiteSpace=wrap;html=1;" parent="1" vertex="1">
          <mxGeometry x="420" y="1050" width="210" height="25" as="geometry" />
        </mxCell>
        <mxCell id="88Dwu4RjRORflN9PIPgM-72" style="edgeStyle=orthogonalEdgeStyle;rounded=0;orthogonalLoop=1;jettySize=auto;html=1;exitX=0.5;exitY=1;exitDx=0;exitDy=0;entryX=0.5;entryY=0;entryDx=0;entryDy=0;" parent="1" source="88Dwu4RjRORflN9PIPgM-64" target="88Dwu4RjRORflN9PIPgM-65" edge="1">
          <mxGeometry relative="1" as="geometry" />
        </mxCell>
        <mxCell id="88Dwu4RjRORflN9PIPgM-64" value="esp8266" style="rounded=0;whiteSpace=wrap;html=1;" parent="1" vertex="1">
          <mxGeometry x="420" y="1090" width="210" height="25" as="geometry" />
        </mxCell>
        <mxCell id="88Dwu4RjRORflN9PIPgM-65" value="dht11" style="rounded=0;whiteSpace=wrap;html=1;" parent="1" vertex="1">
          <mxGeometry x="420" y="1130" width="210" height="25" as="geometry" />
        </mxCell>
        <mxCell id="88Dwu4RjRORflN9PIPgM-68" style="edgeStyle=orthogonalEdgeStyle;rounded=0;orthogonalLoop=1;jettySize=auto;html=1;exitX=1;exitY=0.5;exitDx=0;exitDy=0;dashed=1;" parent="1" source="88Dwu4RjRORflN9PIPgM-66" edge="1">
          <mxGeometry relative="1" as="geometry">
            <mxPoint x="390" y="1289.6666666666667" as="targetPoint" />
          </mxGeometry>
        </mxCell>
        <mxCell id="88Dwu4RjRORflN9PIPgM-66" value="用户主程序" style="rounded=0;whiteSpace=wrap;html=1;" parent="1" vertex="1">
          <mxGeometry x="140" y="1260" width="120" height="60" as="geometry" />
        </mxCell>
        <mxCell id="88Dwu4RjRORflN9PIPgM-73" style="edgeStyle=orthogonalEdgeStyle;rounded=0;orthogonalLoop=1;jettySize=auto;html=1;exitX=0.5;exitY=1;exitDx=0;exitDy=0;entryX=0.5;entryY=0;entryDx=0;entryDy=0;" parent="1" source="88Dwu4RjRORflN9PIPgM-69" target="88Dwu4RjRORflN9PIPgM-70" edge="1">
          <mxGeometry relative="1" as="geometry" />
        </mxCell>
        <mxCell id="88Dwu4RjRORflN9PIPgM-69" value="读取DHT11温湿度传感器数据" style="rounded=0;whiteSpace=wrap;html=1;" parent="1" vertex="1">
          <mxGeometry x="414" y="1250" width="210" height="25" as="geometry" />
        </mxCell>
        <mxCell id="88Dwu4RjRORflN9PIPgM-74" style="edgeStyle=orthogonalEdgeStyle;rounded=0;orthogonalLoop=1;jettySize=auto;html=1;exitX=0.5;exitY=1;exitDx=0;exitDy=0;entryX=1;entryY=0.5;entryDx=0;entryDy=0;" parent="1" source="88Dwu4RjRORflN9PIPgM-70" target="88Dwu4RjRORflN9PIPgM-69" edge="1">
          <mxGeometry relative="1" as="geometry">
            <Array as="points">
              <mxPoint x="519" y="1340" />
              <mxPoint x="644" y="1340" />
              <mxPoint x="644" y="1263" />
            </Array>
          </mxGeometry>
        </mxCell>
        <mxCell id="88Dwu4RjRORflN9PIPgM-70" value="ESP8266发送数据" style="rounded=0;whiteSpace=wrap;html=1;" parent="1" vertex="1">
          <mxGeometry x="414" y="1295" width="210" height="25" as="geometry" />
        </mxCell>
        <mxCell id="88Dwu4RjRORflN9PIPgM-79" value="LED推挽输出模式，上拉，低速&lt;div&gt;DHT11推挽输出，无上下拉电阻，低速&lt;/div&gt;" style="text;html=1;align=center;verticalAlign=middle;whiteSpace=wrap;rounded=0;" parent="1" vertex="1">
          <mxGeometry x="630" y="850" width="220" height="50" as="geometry" />
        </mxCell>
        <mxCell id="88Dwu4RjRORflN9PIPgM-81" value="时钟速度100kHz，占空比2，从设备地址为0...." style="text;html=1;align=center;verticalAlign=middle;whiteSpace=wrap;rounded=0;" parent="1" vertex="1">
          <mxGeometry x="630" y="890" width="270" height="50" as="geometry" />
        </mxCell>
        <mxCell id="88Dwu4RjRORflN9PIPgM-82" value="初始化TIM2,预分频为7200-1，上升沿计数，计数周期100，时钟分频器为DIV1，禁止自动重载预装载" style="text;html=1;align=center;verticalAlign=middle;whiteSpace=wrap;rounded=0;" parent="1" vertex="1">
          <mxGeometry x="630" y="930" width="280" height="50" as="geometry" />
        </mxCell>
        <mxCell id="88Dwu4RjRORflN9PIPgM-83" value="使用USART1，波特率115200，字长8位......." style="text;html=1;align=center;verticalAlign=middle;whiteSpace=wrap;rounded=0;" parent="1" vertex="1">
          <mxGeometry x="630" y="967.5" width="290" height="50" as="geometry" />
        </mxCell>
        <mxCell id="88Dwu4RjRORflN9PIPgM-84" value="硬件连接图" style="text;html=1;align=center;verticalAlign=middle;whiteSpace=wrap;rounded=0;" parent="1" vertex="1">
          <mxGeometry x="50" y="30" width="80" height="30" as="geometry" />
        </mxCell>
        <mxCell id="88Dwu4RjRORflN9PIPgM-85" value="HC-SR501/光敏二极管" style="rounded=0;whiteSpace=wrap;html=1;" parent="1" vertex="1">
          <mxGeometry x="560" y="370" width="120" height="60" as="geometry" />
        </mxCell>
        <mxCell id="88Dwu4RjRORflN9PIPgM-86" value="led" style="rounded=0;whiteSpace=wrap;html=1;" parent="1" vertex="1">
          <mxGeometry x="740" y="250" width="110" height="60" as="geometry" />
        </mxCell>
        <mxCell id="88Dwu4RjRORflN9PIPgM-88" value="GPIO" style="text;html=1;align=center;verticalAlign=middle;whiteSpace=wrap;rounded=0;" parent="1" vertex="1">
          <mxGeometry x="624" y="330" width="56" height="30" as="geometry" />
        </mxCell>
        <mxCell id="88Dwu4RjRORflN9PIPgM-90" value="GPIO" style="text;html=1;align=center;verticalAlign=middle;whiteSpace=wrap;rounded=0;" parent="1" vertex="1">
          <mxGeometry x="680" y="250" width="56" height="30" as="geometry" />
        </mxCell>
        <mxCell id="88Dwu4RjRORflN9PIPgM-91" value="Oled" style="rounded=0;whiteSpace=wrap;html=1;" parent="1" vertex="1">
          <mxGeometry x="565" y="130" width="110" height="60" as="geometry" />
        </mxCell>
        <mxCell id="88Dwu4RjRORflN9PIPgM-93" value="IIC" style="text;html=1;align=center;verticalAlign=middle;whiteSpace=wrap;rounded=0;" parent="1" vertex="1">
          <mxGeometry x="610" y="210" width="56" height="30" as="geometry" />
        </mxCell>
        <mxCell id="88Dwu4RjRORflN9PIPgM-94" value="1s采集一次数据，5s发送一次数据" style="text;html=1;align=center;verticalAlign=middle;whiteSpace=wrap;rounded=0;" parent="1" vertex="1">
          <mxGeometry x="666" y="1275" width="103" height="30" as="geometry" />
        </mxCell>
        <mxCell id="88Dwu4RjRORflN9PIPgM-95" value="通过在定时器中断中修改标志位实现" style="text;html=1;align=center;verticalAlign=middle;whiteSpace=wrap;rounded=0;" parent="1" vertex="1">
          <mxGeometry x="780" y="1272.5" width="103" height="35" as="geometry" />
        </mxCell>
        <mxCell id="5Ap3UijBVRBHG5VPfSj7-1" value="检测到运动输出3.3V" style="text;html=1;align=center;verticalAlign=middle;whiteSpace=wrap;rounded=0;" parent="1" vertex="1">
          <mxGeometry x="565" y="450" width="120" height="30" as="geometry" />
        </mxCell>
        <mxCell id="5Ap3UijBVRBHG5VPfSj7-2" value="检测到有光输出3.3V" style="text;html=1;align=center;verticalAlign=middle;whiteSpace=wrap;rounded=0;" parent="1" vertex="1">
          <mxGeometry x="565" y="430" width="120" height="30" as="geometry" />
        </mxCell>
        <mxCell id="6UhW6n_1-VOmQ1P6sxRn-1" value="有人时开灯&lt;div&gt;无人时关灯&lt;div&gt;&lt;br&gt;&lt;/div&gt;&lt;/div&gt;" style="text;html=1;align=center;verticalAlign=middle;whiteSpace=wrap;rounded=0;" vertex="1" parent="1">
          <mxGeometry x="850" y="270" width="80" height="30" as="geometry" />
        </mxCell>
      </root>
    </mxGraphModel>
  </diagram>
</mxfile>
